<svg width="8" height="9" viewBox="0 0 8 9" fill="none" xmlns="http://www.w3.org/2000/svg">
<path fill-rule="evenodd" clip-rule="evenodd" d="M1.04412 4.53699C0.838789 4.35798 0.817449 4.04642 0.996452 3.84109L3.62697 0.823732C3.72064 0.71629 3.85621 0.654624 3.99875 0.654624C4.14129 0.654624 4.27686 0.71629 4.37053 0.823732L7.00105 3.84109C7.18005 4.04642 7.15871 4.35798 6.95338 4.53699C6.74806 4.71599 6.4365 4.69465 6.25749 4.48932L4.49197 2.46417L4.49197 8.38178C4.49197 8.65418 4.27115 8.875 3.99875 8.875C3.72635 8.875 3.50553 8.65418 3.50553 8.38178L3.50553 2.46417L1.74001 4.48932C1.561 4.69465 1.24944 4.71599 1.04412 4.53699Z" fill="#545454"/>
</svg>
