<svg width="16" height="16" viewBox="0 0 16 16" fill="none" xmlns="http://www.w3.org/2000/svg">
<path d="M16 7.53125H15.1198C15.0497 6.44234 14.7359 5.40059 14.2042 4.46962C14.5184 4.09772 14.7083 3.61759 14.7083 3.09375C14.7083 1.91628 13.7504 0.958344 12.5729 0.958344C11.9954 0.958344 11.4711 1.18916 11.0863 1.56291C10.2728 1.17209 9.38762 0.939344 8.46875 0.880125V0H7.53125V0.880125C5.80175 0.991562 4.19112 1.71788 2.9545 2.9545C1.71791 4.19109 0.991563 5.80175 0.880156 7.53125H0V8.46875H0.880156C0.949313 9.54212 1.25525 10.5697 1.77322 11.4905C1.53103 11.7854 1.38544 12.1624 1.38544 12.5729C1.38544 13.5149 2.15178 14.2812 3.09375 14.2812C3.46159 14.2812 3.80238 14.164 4.0815 13.9654C5.10694 14.642 6.28831 15.0398 7.53125 15.1199V16H8.46875V15.1199C10.1982 15.0084 11.8089 14.2821 13.0455 13.0455C14.2821 11.8089 15.0084 10.1982 15.1198 8.46875H16V7.53125ZM12.5729 1.89584C13.2334 1.89584 13.7708 2.43322 13.7708 3.09375C13.7708 3.75428 13.2334 4.29166 12.5729 4.29166C11.9124 4.29166 11.375 3.75428 11.375 3.09375C11.375 2.43322 11.9124 1.89584 12.5729 1.89584ZM10.5676 2.35947C10.4835 2.58853 10.4375 2.83588 10.4375 3.09375C10.4375 4.27122 11.3954 5.22916 12.5729 5.22916C12.8836 5.22916 13.1788 5.16191 13.4453 5.04203C13.8544 5.79203 14.1129 6.63538 14.1803 7.53122H11.4369C11.2282 5.99281 10.0072 4.77175 8.46872 4.563V1.81972C9.21237 1.87559 9.91972 2.06334 10.5676 2.35947ZM7.53125 7.53125H5.51297C5.70491 6.51081 6.51081 5.70491 7.53125 5.51297V7.53125ZM7.53125 8.46875V10.487C6.51081 10.2951 5.70491 9.48919 5.51297 8.46875H7.53125ZM8.46875 8.46875H10.487C10.2951 9.48919 9.48919 10.2951 8.46875 10.487V8.46875ZM8.46875 7.53125V5.51297C9.48919 5.70491 10.2951 6.51081 10.487 7.53125H8.46875ZM7.53125 1.81972V4.56303C5.99281 4.77178 4.77178 5.99284 4.56303 7.53125H1.81972C2.04847 4.48659 4.48659 2.04847 7.53125 1.81972ZM3.09375 13.3438C2.66872 13.3438 2.32294 12.998 2.32294 12.5729C2.32294 12.1478 2.66872 11.8021 3.09375 11.8021C3.51881 11.8021 3.86459 12.1479 3.86459 12.5729C3.86459 12.998 3.51881 13.3438 3.09375 13.3438ZM4.67191 13.2264C4.75566 13.025 4.80209 12.8043 4.80209 12.5729C4.80209 11.6309 4.03575 10.8646 3.09375 10.8646C2.90441 10.8646 2.72234 10.896 2.55197 10.9532C2.14444 10.2044 1.88691 9.36269 1.81972 8.46875H4.56303C4.77178 10.0072 5.99281 11.2282 7.53125 11.437V14.1803C6.48478 14.1017 5.51 13.762 4.67191 13.2264ZM8.46875 14.1803V11.437C10.0072 11.2282 11.2282 10.0072 11.437 8.46875H14.1803C13.9515 11.5134 11.5134 13.9515 8.46875 14.1803Z" fill="#182B1C"/>
</svg>
