<svg width="16" height="16" viewBox="0 0 16 16" fill="none" xmlns="http://www.w3.org/2000/svg">
<path fill-rule="evenodd" clip-rule="evenodd" d="M2.38179 1.59998L1.50244 2.46498L12.8182 13.6L13.6975 12.7347L2.38179 1.59998Z" fill="#182B1C"/>
<path d="M3.36031 4.29298L4.18798 5.10742C3.28194 5.86653 2.56046 6.81145 2.09423 7.63818L2.09281 7.64097C3.39126 9.77722 5.4515 11.7961 8.05179 11.4899C8.75368 11.4072 9.40844 11.1711 10.0067 10.8333L10.8446 11.6575C9.67847 12.394 8.34169 12.7841 6.89333 12.5913C4.28168 12.2437 2.14619 10.136 0.800049 7.66053C1.43209 6.40912 2.29668 5.21191 3.36031 4.29298ZM5.24281 3.086C5.97309 2.76581 6.76329 2.5775 7.60715 2.56409C7.654 2.56381 8.21023 2.58979 8.46236 2.63059C8.62052 2.65629 8.7781 2.68842 8.93342 2.72837C11.4108 3.36344 13.2461 5.42425 14.4 7.54737C13.9159 8.50933 13.2819 9.44809 12.5258 10.2525L11.7231 9.46262C12.2816 8.87031 12.7473 8.21093 13.1059 7.5714C13.1059 7.5714 12.7453 7.00088 12.4718 6.64269C12.2961 6.41247 12.1112 6.18896 11.917 5.97354C11.7637 5.80367 11.1683 5.22672 11.0266 5.10658C10.076 4.3022 8.95982 3.67105 7.62106 3.68167C7.10259 3.68977 6.604 3.79035 6.13068 3.95967L5.24281 3.086Z" fill="#182B1C"/>
<path fill-rule="evenodd" clip-rule="evenodd" d="M5.61335 6.51037L6.25229 7.13883L8.71166 9.55885C8.38286 9.74045 8.00352 9.84383 7.60005 9.84383C6.34363 9.84383 5.32373 8.84024 5.32373 7.60392C5.32373 7.2069 5.42907 6.83391 5.61335 6.51037ZM7.55803 5.36457C7.57194 5.36429 7.58614 5.36401 7.60005 5.36401C8.85647 5.36401 9.87637 6.36788 9.87637 7.60392C9.87637 7.61789 9.87637 7.63158 9.87609 7.64527L7.55803 5.36457Z" fill="#182B1C"/>
</svg>
