<svg width="13" height="9" viewBox="0 0 13 9" fill="none" xmlns="http://www.w3.org/2000/svg">
<path fill-rule="evenodd" clip-rule="evenodd" d="M0.642857 0C0.287817 0 0 0.287817 0 0.642857C0 0.997897 0.287817 1.28571 0.642857 1.28571H0.649286C1.00433 1.28571 1.29214 0.997897 1.29214 0.642857C1.29214 0.287817 1.00433 0 0.649286 0H0.642857ZM3.85714 0C3.5021 0 3.21429 0.287817 3.21429 0.642857C3.21429 0.997897 3.5021 1.28571 3.85714 1.28571H12.2143C12.5693 1.28571 12.8571 0.997897 12.8571 0.642857C12.8571 0.287817 12.5693 0 12.2143 0H3.85714ZM3.85714 3.85714C3.5021 3.85714 3.21429 4.14496 3.21429 4.5C3.21429 4.85504 3.5021 5.14286 3.85714 5.14286H12.2143C12.5693 5.14286 12.8571 4.85504 12.8571 4.5C12.8571 4.14496 12.5693 3.85714 12.2143 3.85714H3.85714ZM3.21429 8.35714C3.21429 8.0021 3.5021 7.71429 3.85714 7.71429H12.2143C12.5693 7.71429 12.8571 8.0021 12.8571 8.35714C12.8571 8.71218 12.5693 9 12.2143 9H3.85714C3.5021 9 3.21429 8.71218 3.21429 8.35714ZM0 4.5C0 4.14496 0.287817 3.85714 0.642857 3.85714H0.649286C1.00433 3.85714 1.29214 4.14496 1.29214 4.5C1.29214 4.85504 1.00433 5.14286 0.649286 5.14286H0.642857C0.287817 5.14286 0 4.85504 0 4.5ZM0.642857 7.71429C0.287817 7.71429 0 8.0021 0 8.35714C0 8.71218 0.287817 9 0.642857 9H0.649286C1.00433 9 1.29214 8.71218 1.29214 8.35714C1.29214 8.0021 1.00433 7.71429 0.649286 7.71429H0.642857Z" fill="#5B6885"/>
</svg>
