<svg width="12" height="12" viewBox="0 0 12 12" fill="none" xmlns="http://www.w3.org/2000/svg">
<path fill-rule="evenodd" clip-rule="evenodd" d="M6.66675 1.33329C6.66675 0.965103 6.36827 0.666626 6.00008 0.666626C5.63189 0.666626 5.33341 0.965103 5.33341 1.33329V5.33329H1.33341C0.965225 5.33329 0.666748 5.63177 0.666748 5.99996C0.666748 6.36815 0.965225 6.66663 1.33341 6.66663H5.33341V10.6666C5.33341 11.0348 5.63189 11.3333 6.00008 11.3333C6.36827 11.3333 6.66675 11.0348 6.66675 10.6666V6.66663H10.6667C11.0349 6.66663 11.3334 6.36815 11.3334 5.99996C11.3334 5.63177 11.0349 5.33329 10.6667 5.33329H6.66675V1.33329Z" fill="#5B6885"/>
</svg>
