<svg width="14" height="14" viewBox="0 0 14 14" fill="none" xmlns="http://www.w3.org/2000/svg">
<path fill-rule="evenodd" clip-rule="evenodd" d="M6.66667 1.21212C3.6542 1.21212 1.21212 3.6542 1.21212 6.66667C1.21212 9.67913 3.6542 12.1212 6.66667 12.1212C9.67913 12.1212 12.1212 9.67913 12.1212 6.66667C12.1212 3.6542 9.67913 1.21212 6.66667 1.21212ZM0 6.66667C0 2.98477 2.98477 0 6.66667 0C10.3486 0 13.3333 2.98477 13.3333 6.66667C13.3333 10.3486 10.3486 13.3333 6.66667 13.3333C2.98477 13.3333 0 10.3486 0 6.66667Z" fill="#474267"/>
<path fill-rule="evenodd" clip-rule="evenodd" d="M6.82293 4.25728C6.54079 4.20889 6.25064 4.26191 6.00385 4.40695C5.75706 4.55199 5.56957 4.77969 5.47457 5.04972C5.3635 5.36547 5.01749 5.5314 4.70174 5.42032C4.38599 5.30925 4.22006 4.96324 4.33114 4.64749C4.52112 4.10742 4.89611 3.65202 5.38969 3.36194C5.88327 3.07186 6.46358 2.96582 7.02785 3.06261C7.59211 3.1594 8.10392 3.45276 8.47262 3.89074C8.84124 4.32864 9.04302 4.88284 9.04225 5.45522C9.04198 6.38271 8.35433 6.99521 7.86328 7.32258C7.59926 7.49859 7.33956 7.62801 7.14824 7.71304C7.05173 7.75594 6.97045 7.78849 6.91189 7.8108C6.88256 7.82197 6.85877 7.83063 6.84146 7.83679L6.82041 7.84416L6.81371 7.84645L6.81135 7.84724L6.81042 7.84756C6.81024 7.84762 6.80966 7.84781 6.61801 7.27285L6.80966 7.84781C6.49212 7.95366 6.1489 7.78204 6.04305 7.4645C5.93727 7.14717 6.10859 6.80419 6.42572 6.6981L6.42495 6.69836C6.42501 6.69834 6.42506 6.69833 6.42572 6.6981L6.43539 6.69471C6.44471 6.69139 6.45999 6.68585 6.48038 6.67808C6.52125 6.66252 6.58202 6.63825 6.65595 6.60539C6.80555 6.5389 7.00039 6.44105 7.19092 6.31403C7.60886 6.0354 7.83013 5.73899 7.83013 5.45467L7.83013 5.45376C7.83056 5.16751 7.72966 4.89034 7.54531 4.67135C7.36096 4.45236 7.10506 4.30568 6.82293 4.25728Z" fill="#474267"/>
<path fill-rule="evenodd" clip-rule="evenodd" d="M6.06055 9.69688C6.06055 9.36216 6.33189 9.09082 6.66661 9.09082H6.67267C7.00739 9.09082 7.27873 9.36216 7.27873 9.69688C7.27873 10.0316 7.00739 10.3029 6.67267 10.3029H6.66661C6.33189 10.3029 6.06055 10.0316 6.06055 9.69688Z" fill="#474267"/>
</svg>
