<svg width="14" height="14" viewBox="0 0 14 14" fill="none" xmlns="http://www.w3.org/2000/svg">
<path fill-rule="evenodd" clip-rule="evenodd" d="M2.33325 1.66671C1.96506 1.66671 1.66659 1.96518 1.66659 2.33337V11.6667C1.66659 12.0349 1.96506 12.3334 2.33325 12.3334H11.6666C12.0348 12.3334 12.3333 12.0349 12.3333 11.6667V2.33337C12.3333 1.96518 12.0348 1.66671 11.6666 1.66671H2.33325ZM0.333252 2.33337C0.333252 1.2288 1.22868 0.333374 2.33325 0.333374H11.6666C12.7712 0.333374 13.6666 1.2288 13.6666 2.33337V11.6667C13.6666 12.7713 12.7712 13.6667 11.6666 13.6667H2.33325C1.22868 13.6667 0.333252 12.7713 0.333252 11.6667V2.33337Z" fill="#5B6885"/>
</svg>
