<svg width="12" height="12" viewBox="0 0 12 12" fill="none" xmlns="http://www.w3.org/2000/svg">
<path fill-rule="evenodd" clip-rule="evenodd" d="M1.2 5.39999C1.2 3.0804 3.0804 1.2 5.39999 1.2C7.71959 1.2 9.59999 3.0804 9.59999 5.39999C9.59999 6.53161 9.15245 7.5587 8.42472 8.31392C8.40423 8.32969 8.38452 8.34696 8.36574 8.36574C8.34696 8.38452 8.32969 8.40423 8.31392 8.42472C7.5587 9.15245 6.53161 9.59999 5.39999 9.59999C3.0804 9.59999 1.2 7.71959 1.2 5.39999ZM8.7706 9.61913C7.8468 10.3581 6.675 10.8 5.39999 10.8C2.41766 10.8 0 8.38233 0 5.39999C0 2.41766 2.41766 0 5.39999 0C8.38233 0 10.8 2.41766 10.8 5.39999C10.8 6.675 10.3581 7.8468 9.61913 8.7706L11.8243 10.9757C12.0586 11.2101 12.0586 11.59 11.8243 11.8243C11.59 12.0586 11.2101 12.0586 10.9757 11.8243L8.7706 9.61913Z" fill="#474267"/>
</svg>
