<svg width="14" height="14" viewBox="0 0 14 14" fill="none" xmlns="http://www.w3.org/2000/svg">
<path fill-rule="evenodd" clip-rule="evenodd" d="M6.58752 1.33752C6.69692 1.22812 6.84529 1.16667 7 1.16667C7.15471 1.16667 7.30308 1.22812 7.41248 1.33752C7.52187 1.44692 7.58333 1.59529 7.58333 1.75V1.8025L7.58334 1.80483C7.58454 2.1063 7.67387 2.40084 7.84033 2.65219C8.00621 2.90267 8.24147 3.09937 8.51732 3.21826C8.79915 3.34196 9.11152 3.37873 9.41442 3.32381C9.71833 3.2687 9.99877 3.12382 10.2196 2.90784L10.2196 2.90786L10.2241 2.90331L10.2591 2.86831L10.2594 2.86808C10.3135 2.81385 10.3779 2.77082 10.4487 2.74146C10.5195 2.71211 10.5954 2.697 10.6721 2.697C10.7487 2.697 10.8246 2.71211 10.8955 2.74146C10.9663 2.77082 11.0306 2.81385 11.0848 2.86808L11.0852 2.86854C11.1395 2.92272 11.1825 2.98705 11.2119 3.05787C11.2412 3.12868 11.2563 3.20459 11.2563 3.28125C11.2563 3.35791 11.2412 3.43382 11.2119 3.50463C11.1825 3.57545 11.1395 3.63978 11.0852 3.69396L11.085 3.69419L11.05 3.72919L11.05 3.72916L11.0455 3.73376C10.8295 3.95456 10.6846 4.235 10.6295 4.53892C10.5817 4.80277 10.6034 5.07382 10.6916 5.3256C10.6985 5.37858 10.7127 5.43047 10.7338 5.47979C10.8526 5.75689 11.0498 5.99321 11.3011 6.15967C11.5525 6.32613 11.847 6.41546 12.1485 6.41666L12.1508 6.41667H12.25C12.4047 6.41667 12.5531 6.47812 12.6625 6.58752C12.7719 6.69692 12.8333 6.84529 12.8333 7C12.8333 7.15471 12.7719 7.30308 12.6625 7.41248C12.5531 7.52187 12.4047 7.58333 12.25 7.58333L12.1975 7.58333L12.1952 7.58334C11.8937 7.58454 11.5992 7.67387 11.3478 7.84033C11.0973 8.00622 10.9006 8.24151 10.7817 8.51739C10.658 8.7992 10.6213 9.11155 10.6762 9.41442C10.7313 9.71833 10.8762 9.99877 11.0922 10.2196L11.0921 10.2196L11.0967 10.2242L11.1317 10.2592L11.1319 10.2594C11.1862 10.3135 11.2292 10.3779 11.2585 10.4487C11.2879 10.5195 11.303 10.5954 11.303 10.6721C11.303 10.7487 11.2879 10.8246 11.2585 10.8955C11.2292 10.9663 11.1862 11.0306 11.1319 11.0848L11.1315 11.0852C11.0773 11.1395 11.0129 11.1825 10.9421 11.2119C10.8713 11.2412 10.7954 11.2563 10.7188 11.2563C10.6421 11.2563 10.5662 11.2412 10.4954 11.2119C10.4246 11.1825 10.3602 11.1395 10.306 11.0852L10.3058 11.085L10.2708 11.05L10.2708 11.05L10.2662 11.0455C10.0454 10.8295 9.765 10.6846 9.46108 10.6295C9.15821 10.5746 8.84587 10.6114 8.56405 10.735C8.28817 10.8539 8.05289 11.0506 7.88699 11.3011C7.72054 11.5525 7.63121 11.847 7.63 12.1485L7.63 12.1508V12.25C7.63 12.4047 7.56854 12.5531 7.45915 12.6625C7.34975 12.7719 7.20138 12.8333 7.04667 12.8333C6.89196 12.8333 6.74358 12.7719 6.63419 12.6625C6.52479 12.5531 6.46333 12.4047 6.46333 12.25V12.1975L6.46317 12.1839C6.45592 11.8738 6.35554 11.573 6.1751 11.3207C5.99822 11.0734 5.75244 10.8839 5.46861 10.7757C5.19048 10.6568 4.88345 10.6222 4.58558 10.6762C4.28167 10.7313 4.00123 10.8762 3.78043 11.0922L3.7804 11.0921L3.77585 11.0967L3.74085 11.1317L3.74062 11.1319C3.68645 11.1862 3.62212 11.2292 3.5513 11.2585C3.48048 11.2879 3.40457 11.303 3.32792 11.303C3.25126 11.303 3.17535 11.2879 3.10453 11.2585C3.03372 11.2292 2.96938 11.1862 2.91521 11.1319L2.91475 11.1315C2.86051 11.0773 2.81749 11.0129 2.78813 10.9421C2.75878 10.8713 2.74367 10.7954 2.74367 10.7188C2.74367 10.6421 2.75878 10.5662 2.78813 10.4954C2.81749 10.4246 2.86051 10.3602 2.91475 10.306L2.91498 10.3058L2.94998 10.2708L2.95 10.2708L2.9545 10.2662C3.17049 10.0454 3.31537 9.765 3.37048 9.46108C3.4254 9.15819 3.38863 8.84582 3.26492 8.56399C3.14603 8.28813 2.94934 8.05287 2.69886 7.88699C2.44751 7.72054 2.15297 7.63121 1.85149 7.63V7.63H1.84917H1.75C1.59529 7.63 1.44692 7.56854 1.33752 7.45915C1.22812 7.34975 1.16667 7.20138 1.16667 7.04667C1.16667 6.89196 1.22812 6.74358 1.33752 6.63419C1.44692 6.52479 1.59529 6.46333 1.75 6.46333H1.8025L1.81614 6.46317C2.12624 6.45592 2.42698 6.35554 2.67928 6.1751C2.92657 5.99822 3.1161 5.75244 3.22435 5.46862C3.34316 5.19048 3.37782 4.88345 3.32381 4.58558C3.2687 4.28167 3.12382 4.00123 2.90784 3.78043L2.90786 3.7804L2.90331 3.77585L2.86831 3.74085L2.86808 3.74062C2.81385 3.68645 2.77082 3.62211 2.74146 3.5513C2.71211 3.48048 2.697 3.40458 2.697 3.32792C2.697 3.25126 2.71211 3.17535 2.74146 3.10453C2.77082 3.03372 2.81385 2.96938 2.86808 2.91521L2.86854 2.91475C2.92272 2.86051 2.98705 2.81749 3.05787 2.78813C3.12868 2.75878 3.20459 2.74367 3.28125 2.74367C3.35791 2.74367 3.43382 2.75878 3.50463 2.78813C3.57545 2.81749 3.63978 2.86051 3.69396 2.91475L3.69419 2.91498L3.72919 2.94998L3.72916 2.95L3.73376 2.9545C3.95456 3.17049 4.235 3.31537 4.53892 3.37048C4.80277 3.41832 5.07382 3.39658 5.32561 3.30841C5.37858 3.30149 5.43047 3.2873 5.47979 3.26616C5.75689 3.1474 5.99321 2.95021 6.15967 2.69886C6.32613 2.44751 6.41546 2.15297 6.41666 1.85149H6.41667V1.84917V1.75C6.41667 1.59529 6.47812 1.44692 6.58752 1.33752ZM11.8503 8.98553L11.3167 8.75L11.8528 8.97979C11.882 8.91183 11.9303 8.85386 11.992 8.81303C12.0534 8.77236 12.1253 8.75046 12.199 8.75H12.25C12.7141 8.75 13.1592 8.56562 13.4874 8.23744C13.8156 7.90925 14 7.46413 14 7C14 6.53587 13.8156 6.09075 13.4874 5.76256C13.1592 5.43437 12.7141 5.25 12.25 5.25H12.1523C12.0786 5.24954 12.0067 5.22764 11.9453 5.18697C11.9039 5.15957 11.8686 5.12446 11.841 5.08379C11.8326 5.04404 11.8202 5.00516 11.8037 4.9678C11.7731 4.89849 11.764 4.82161 11.7775 4.74706C11.7908 4.67333 11.8258 4.60523 11.8778 4.55135L11.9097 4.51937L11.91 4.51914C12.0726 4.35666 12.2016 4.16374 12.2896 3.9514C12.3777 3.73895 12.423 3.51123 12.423 3.28125C12.423 3.05127 12.3777 2.82355 12.2896 2.6111C12.2016 2.39886 12.0727 2.20602 11.9102 2.04358C11.7477 1.88088 11.5547 1.7518 11.3422 1.66373C11.1298 1.57566 10.9021 1.53033 10.6721 1.53033C10.4421 1.53033 10.2144 1.57566 10.0019 1.66373C9.78949 1.7518 9.59649 1.88087 9.43396 2.04358L9.40198 2.07556C9.34809 2.12758 9.28 2.16249 9.20627 2.17586C9.13173 2.18938 9.05484 2.18025 8.98553 2.14966L8.98554 2.14963L8.97979 2.14717C8.91183 2.11804 8.85386 2.06967 8.81303 2.00802C8.77236 1.94661 8.75046 1.87468 8.75 1.80104V1.75C8.75 1.28587 8.56562 0.840752 8.23744 0.512563C7.90925 0.184375 7.46413 0 7 0C6.53587 0 6.09075 0.184375 5.76256 0.512563C5.43437 0.840752 5.25 1.28587 5.25 1.75V1.84771C5.24954 1.92135 5.22764 1.99327 5.18697 2.05468C5.15957 2.09605 5.12446 2.13144 5.08379 2.15905C5.04404 2.16737 5.00516 2.17984 4.9678 2.19633C4.89849 2.22692 4.82161 2.23604 4.74706 2.22253C4.67333 2.20916 4.60523 2.17425 4.55135 2.12222L4.51937 2.09025C4.35685 1.92754 4.16384 1.79846 3.9514 1.7104C3.73895 1.62233 3.51123 1.577 3.28125 1.577C3.05127 1.577 2.82355 1.62233 2.6111 1.7104C2.39876 1.79842 2.20583 1.92742 2.04335 2.09002C1.88075 2.2525 1.75176 2.44542 1.66373 2.65777C1.57566 2.87022 1.53033 3.09794 1.53033 3.32792C1.53033 3.55789 1.57566 3.78562 1.66373 3.99806C1.7518 4.21051 1.88088 4.40351 2.04358 4.56604L2.07556 4.59801C2.12758 4.6519 2.16249 4.72 2.17586 4.79373C2.18938 4.86827 2.18025 4.94516 2.14966 5.01447C2.1447 5.02571 2.1401 5.03711 2.13585 5.04864C2.10959 5.12005 2.06245 5.1819 2.00057 5.22617C1.94012 5.2694 1.86832 5.2939 1.79412 5.29667H1.75C1.28587 5.29667 0.840752 5.48104 0.512563 5.80923C0.184375 6.13742 0 6.58254 0 7.04667C0 7.5108 0.184375 7.95591 0.512563 8.2841C0.840752 8.61229 1.28587 8.79667 1.75 8.79667H1.84771C1.92135 8.79713 1.99327 8.81903 2.05468 8.8597C2.11634 8.90053 2.16471 8.95849 2.19384 9.02646L2.1938 9.02647L2.19633 9.0322C2.22692 9.10151 2.23604 9.17839 2.22253 9.25294C2.20916 9.32667 2.17425 9.39476 2.12223 9.44864L2.09025 9.48062C1.92754 9.64315 1.79846 9.83616 1.7104 10.0486C1.62233 10.2611 1.577 10.4888 1.577 10.7188C1.577 10.9487 1.62233 11.1764 1.7104 11.3889C1.79846 11.6013 1.92754 11.7943 2.09025 11.9569C2.25268 12.1194 2.44553 12.2483 2.65777 12.3363C2.87022 12.4243 3.09794 12.4697 3.32792 12.4697C3.55789 12.4697 3.78562 12.4243 3.99806 12.3363C4.21041 12.2482 4.40333 12.1192 4.56582 11.9566L4.56604 11.9564L4.59801 11.9244C4.65189 11.8724 4.71999 11.8375 4.79373 11.8241C4.86827 11.8106 4.94516 11.8197 5.01447 11.8503C5.02571 11.8553 5.03711 11.8599 5.04864 11.8641C5.12005 11.8904 5.1819 11.9375 5.22617 11.9994C5.2694 12.0599 5.2939 12.1317 5.29667 12.2059V12.25C5.29667 12.7141 5.48104 13.1592 5.80923 13.4874C6.13742 13.8156 6.58254 14 7.04667 14C7.5108 14 7.95591 13.8156 8.2841 13.4874C8.61229 13.1592 8.79667 12.7141 8.79667 12.25V12.1523C8.79713 12.0786 8.81903 12.0067 8.8597 11.9453C8.90053 11.8837 8.95849 11.8353 9.02646 11.8062L9.02647 11.8062L9.0322 11.8037C9.10151 11.7731 9.17839 11.764 9.25294 11.7775C9.32666 11.7908 9.39476 11.8257 9.44864 11.8778L9.48062 11.9097L9.48085 11.91C9.64333 12.0726 9.83626 12.2016 10.0486 12.2896C10.2611 12.3777 10.4888 12.423 10.7188 12.423C10.9487 12.423 11.1764 12.3777 11.3889 12.2896C11.6012 12.2016 11.7942 12.0726 11.9566 11.91C11.9566 11.9101 11.9565 11.9101 11.9564 11.9102L11.5442 11.4975L11.9569 11.9097C11.9568 11.9098 11.9567 11.9099 11.9566 11.91C12.1192 11.7475 12.2482 11.5546 12.3363 11.3422C12.4243 11.1298 12.4697 10.9021 12.4697 10.6721C12.4697 10.4421 12.4243 10.2144 12.3363 10.0019C12.2482 9.78959 12.1192 9.59666 11.9566 9.43418L11.9564 9.43396L11.9244 9.40197C11.8724 9.34809 11.8375 9.28 11.8241 9.20627C11.8106 9.13172 11.8197 9.05484 11.8503 8.98553ZM5.83333 7C5.83333 6.35567 6.35567 5.83333 7 5.83333C7.64433 5.83333 8.16667 6.35567 8.16667 7C8.16667 7.64433 7.64433 8.16667 7 8.16667C6.35567 8.16667 5.83333 7.64433 5.83333 7ZM7 4.66667C5.71134 4.66667 4.66667 5.71134 4.66667 7C4.66667 8.28866 5.71134 9.33333 7 9.33333C8.28866 9.33333 9.33333 8.28866 9.33333 7C9.33333 5.71134 8.28866 4.66667 7 4.66667Z" fill="#5B6885"/>
</svg>
