<svg width="179" height="59" viewBox="0 0 179 59" fill="none" xmlns="http://www.w3.org/2000/svg">
<path d="M25.112 21.864H46.488V24.264C46.488 27.2507 45.976 30.0453 44.952 32.648C43.928 35.2293 42.4773 37.512 40.6 39.496C38.744 41.4587 36.5467 42.9947 34.008 44.104C31.4693 45.2133 28.664 45.768 25.592 45.768C22.4773 45.768 19.6187 45.2027 17.016 44.072C14.4347 42.92 12.1947 41.3413 10.296 39.336C8.41867 37.3307 6.95733 35.0053 5.912 32.36C4.888 29.7147 4.376 26.8773 4.376 23.848C4.376 20.84 4.888 18.0133 5.912 15.368C6.95733 12.7227 8.41867 10.3973 10.296 8.392C12.1947 6.38667 14.4347 4.81867 17.016 3.688C19.6187 2.55733 22.4773 1.992 25.592 1.992C27.8747 1.992 29.9227 2.248 31.736 2.76C33.5707 3.25067 35.2027 3.92266 36.632 4.776C38.0613 5.62933 39.3093 6.6 40.376 7.688C41.4427 8.75467 42.3493 9.85333 43.096 10.984L36.888 14.12C35.736 12.4773 34.232 11.112 32.376 10.024C30.52 8.91466 28.2587 8.36 25.592 8.36C23.5227 8.36 21.6133 8.76533 19.864 9.576C18.136 10.3867 16.632 11.5067 15.352 12.936C14.0933 14.3653 13.112 16.0187 12.408 17.896C11.7253 19.752 11.384 21.736 11.384 23.848C11.384 25.96 11.7253 27.9547 12.408 29.832C13.112 31.7093 14.0933 33.3627 15.352 34.792C16.632 36.2213 18.136 37.352 19.864 38.184C21.6133 38.9947 23.5227 39.4 25.592 39.4C27.5333 39.4 29.2933 39.0907 30.872 38.472C32.472 37.832 33.8587 36.9573 35.032 35.848C36.2053 34.7387 37.1333 33.448 37.816 31.976C38.4987 30.4827 38.8933 28.8827 39 27.176H25.112V21.864ZM55.2645 33.48C55.3072 34.8667 55.6378 36.1147 56.2565 37.224C56.8752 38.3333 57.7818 39.208 58.9765 39.848C60.1925 40.4667 61.6752 40.776 63.4245 40.776C64.9392 40.776 66.2405 40.5733 67.3285 40.168C68.4378 39.7413 69.3552 39.24 70.0805 38.664C70.8058 38.0667 71.3392 37.512 71.6805 37L74.7205 41.128C74.0592 42.024 73.2272 42.824 72.2245 43.528C71.2218 44.232 69.9738 44.776 68.4805 45.16C67.0085 45.5653 65.1845 45.768 63.0085 45.768C60.1498 45.768 57.6645 45.1813 55.5525 44.008C53.4405 42.8347 51.7978 41.1813 50.6245 39.048C49.4725 36.9147 48.8965 34.4187 48.8965 31.56C48.8965 29 49.4298 26.696 50.4965 24.648C51.5632 22.5787 53.1098 20.9467 55.1365 19.752C57.1845 18.5573 59.6378 17.96 62.4965 17.96C65.1632 17.96 67.4778 18.4933 69.4405 19.56C71.4032 20.6267 72.9178 22.1627 73.9845 24.168C75.0725 26.152 75.6165 28.552 75.6165 31.368C75.6165 31.5387 75.6058 31.8907 75.5845 32.424C75.5845 32.9573 75.5632 33.3093 75.5205 33.48H55.2645ZM69.2165 28.488C69.1952 27.8053 68.9605 27.0267 68.5125 26.152C68.0858 25.2773 67.3925 24.52 66.4325 23.88C65.4725 23.2187 64.1925 22.888 62.5925 22.888C60.9498 22.888 59.6165 23.208 58.5925 23.848C57.5685 24.4667 56.8112 25.2133 56.3205 26.088C55.8298 26.9413 55.5418 27.7413 55.4565 28.488H69.2165ZM92.0275 45.768C89.2755 45.768 86.8222 45.1707 84.6675 43.976C82.5342 42.76 80.8595 41.1173 79.6435 39.048C78.4275 36.9573 77.8195 34.5893 77.8195 31.944C77.8195 29.2987 78.4275 26.92 79.6435 24.808C80.8595 22.696 82.5342 21.032 84.6675 19.816C86.8222 18.5787 89.2755 17.96 92.0275 17.96C94.7795 17.96 97.2115 18.5787 99.3235 19.816C101.436 21.032 103.089 22.696 104.284 24.808C105.5 26.92 106.108 29.2987 106.108 31.944C106.108 34.5893 105.5 36.9573 104.284 39.048C103.089 41.1173 101.436 42.76 99.3235 43.976C97.2115 45.1707 94.7795 45.768 92.0275 45.768ZM92.0275 40.008C93.5635 40.008 94.8968 39.656 96.0275 38.952C97.1582 38.248 98.0328 37.288 98.6515 36.072C99.2702 34.856 99.5795 33.4693 99.5795 31.912C99.5795 30.3547 99.2702 28.968 98.6515 27.752C98.0328 26.5147 97.1582 25.5333 96.0275 24.808C94.8968 24.0827 93.5635 23.72 92.0275 23.72C90.4915 23.72 89.1475 24.0827 87.9955 24.808C86.8648 25.5333 85.9795 26.5147 85.3395 27.752C84.7208 28.968 84.4115 30.3547 84.4115 31.912C84.4115 33.4693 84.7208 34.856 85.3395 36.072C85.9795 37.288 86.8648 38.248 87.9955 38.952C89.1475 39.656 90.4915 40.008 92.0275 40.008Z" fill="#354E36"/>
<path d="M122.32 2.76H129.2L145.136 45H137.968L134.48 35.336H117.072L113.552 45H106.352L122.32 2.76ZM119.248 29.352H132.304L125.808 10.952H125.712L119.248 29.352ZM147.663 2.76H160.655C163.3 2.76 165.689 3.208 167.823 4.104C169.977 5 171.695 6.376 172.975 8.232C174.255 10.088 174.895 12.4773 174.895 15.4C174.895 18.3227 174.255 20.7653 172.975 22.728C171.695 24.6693 169.977 26.1307 167.823 27.112C165.689 28.0933 163.3 28.584 160.655 28.584H154.383V45H147.663V2.76ZM154.383 23.08H158.799C160.441 23.08 161.935 22.8453 163.279 22.376C164.644 21.8853 165.721 21.0853 166.511 19.976C167.321 18.8667 167.727 17.3947 167.727 15.56C167.727 13.704 167.321 12.2533 166.511 11.208C165.721 10.1413 164.644 9.384 163.279 8.936C161.935 8.488 160.441 8.264 158.799 8.264H154.383V23.08Z" fill="#506A51"/>
<path d="M5.31819 45.6061L5.31819 35.1818C5.31819 35.1818 6.99095 38.4182 9.80061 41.2279C12.6103 44.0375 16.3939 45.6061 16.3939 45.6061L5.31819 45.6061Z" fill="#506A51"/>
</svg>
