<svg width="12" height="12" viewBox="0 0 12 12" fill="none" xmlns="http://www.w3.org/2000/svg">
<path fill-rule="evenodd" clip-rule="evenodd" d="M6 1.09091C8.71122 1.09091 10.9091 3.28878 10.9091 6C10.9091 8.71122 8.71122 10.9091 6 10.9091C3.28878 10.9091 1.09091 8.71122 1.09091 6C1.09091 3.28878 3.28878 1.09091 6 1.09091ZM12 6C12 2.68629 9.31371 0 6 0C2.68629 0 0 2.68629 0 6C0 9.31371 2.68629 12 6 12C9.31371 12 12 9.31371 12 6ZM5.61431 3.43249L3.43288 5.61392C3.43156 5.61523 3.43025 5.61655 3.42894 5.61788C3.33267 5.71593 3.27316 5.8502 3.27273 5.99836C3.27273 5.99891 3.27273 5.99945 3.27273 6C3.27273 6.00055 3.27273 6.00109 3.27273 6.00164C3.27294 6.075 3.28764 6.14495 3.31412 6.20879C3.34013 6.27166 3.3784 6.33066 3.42894 6.38212C3.43025 6.38345 3.43156 6.38477 3.43288 6.38608L5.61431 8.56751C5.82732 8.78053 6.17268 8.78053 6.38569 8.56751C6.59871 8.3545 6.59871 8.00914 6.38569 7.79612L5.13503 6.54545H8.18182C8.48306 6.54545 8.72727 6.30125 8.72727 6C8.72727 5.69875 8.48306 5.45455 8.18182 5.45455H5.13503L6.38569 4.20388C6.59871 3.99086 6.59871 3.6455 6.38569 3.43249C6.17268 3.21947 5.82732 3.21947 5.61431 3.43249Z" fill="#5B6885"/>
</svg>
