<svg width="12" height="14" viewBox="0 0 12 14" fill="none" xmlns="http://www.w3.org/2000/svg">
<path fill-rule="evenodd" clip-rule="evenodd" d="M4.83317 1.75016C4.67846 1.75016 4.53009 1.81162 4.42069 1.92102C4.3113 2.03041 4.24984 2.17879 4.24984 2.3335V2.91683H7.74984V2.3335C7.74984 2.17879 7.68838 2.03041 7.57898 1.92102C7.46959 1.81162 7.32121 1.75016 7.1665 1.75016H4.83317ZM8.9165 2.91683V2.3335C8.9165 1.86937 8.73213 1.42425 8.40394 1.09606C8.07575 0.767871 7.63063 0.583496 7.1665 0.583496H4.83317C4.36904 0.583496 3.92392 0.767871 3.59573 1.09606C3.26755 1.42425 3.08317 1.86937 3.08317 2.3335V2.91683H0.749837C0.427671 2.91683 0.166504 3.178 0.166504 3.50016C0.166504 3.82233 0.427671 4.0835 0.749837 4.0835H1.33317V11.6668C1.33317 12.131 1.51755 12.5761 1.84573 12.9043C2.17392 13.2325 2.61904 13.4168 3.08317 13.4168H8.9165C9.38063 13.4168 9.82575 13.2325 10.1539 12.9043C10.4821 12.5761 10.6665 12.131 10.6665 11.6668V4.0835H11.2498C11.572 4.0835 11.8332 3.82233 11.8332 3.50016C11.8332 3.178 11.572 2.91683 11.2498 2.91683H8.9165ZM2.49984 4.0835V11.6668C2.49984 11.8215 2.5613 11.9699 2.67069 12.0793C2.78009 12.1887 2.92846 12.2502 3.08317 12.2502H8.9165C9.07121 12.2502 9.21959 12.1887 9.32898 12.0793C9.43838 11.9699 9.49984 11.8215 9.49984 11.6668V4.0835H2.49984ZM4.83317 5.8335C5.15534 5.8335 5.4165 6.09466 5.4165 6.41683V9.91683C5.4165 10.239 5.15534 10.5002 4.83317 10.5002C4.511 10.5002 4.24984 10.239 4.24984 9.91683V6.41683C4.24984 6.09466 4.511 5.8335 4.83317 5.8335ZM6.58317 6.41683C6.58317 6.09466 6.84434 5.8335 7.1665 5.8335C7.48867 5.8335 7.74984 6.09466 7.74984 6.41683V9.91683C7.74984 10.239 7.48867 10.5002 7.1665 10.5002C6.84434 10.5002 6.58317 10.239 6.58317 9.91683V6.41683Z" fill="#545454"/>
</svg>
