<svg width="14" height="14" viewBox="0 0 14 14" fill="none" xmlns="http://www.w3.org/2000/svg">
<path fill-rule="evenodd" clip-rule="evenodd" d="M7.7 0.7C7.7 0.313401 7.3866 0 7 0C6.6134 0 6.3 0.313401 6.3 0.7V7.41005L3.99497 5.10503C3.72161 4.83166 3.27839 4.83166 3.00503 5.10503C2.73166 5.37839 2.73166 5.82161 3.00503 6.09497L6.50453 9.59447C6.50621 9.59617 6.50791 9.59785 6.50962 9.59952C6.57566 9.66438 6.65137 9.7135 6.73205 9.74688C6.81398 9.78086 6.90375 9.79972 6.9979 9.8C6.9986 9.8 6.9993 9.8 7 9.8C7.0007 9.8 7.0014 9.8 7.0021 9.8C7.19224 9.79944 7.36455 9.72307 7.49038 9.59952C7.49209 9.59785 7.49379 9.59617 7.49547 9.59447L10.995 6.09497C11.2683 5.82161 11.2683 5.37839 10.995 5.10503C10.7216 4.83166 10.2784 4.83166 10.005 5.10503L7.7 7.41005V0.7ZM0.7 8.4C1.0866 8.4 1.4 8.7134 1.4 9.1V11.9C1.4 12.0857 1.47375 12.2637 1.60503 12.395C1.7363 12.5263 1.91435 12.6 2.1 12.6H11.9C12.0857 12.6 12.2637 12.5263 12.395 12.395C12.5263 12.2637 12.6 12.0857 12.6 11.9V9.1C12.6 8.7134 12.9134 8.4 13.3 8.4C13.6866 8.4 14 8.7134 14 9.1V11.9C14 12.457 13.7788 12.9911 13.3849 13.3849C12.9911 13.7788 12.457 14 11.9 14H2.1C1.54304 14 1.0089 13.7788 0.615076 13.3849C0.221249 12.9911 0 12.457 0 11.9V9.1C0 8.7134 0.313401 8.4 0.7 8.4Z" fill="#5B6885"/>
</svg>
