<svg width="12" height="14" viewBox="0 0 12 14" fill="none" xmlns="http://www.w3.org/2000/svg">
<path fill-rule="evenodd" clip-rule="evenodd" d="M6 0.333374C4.8861 0.333374 3.81782 0.780414 3.03017 1.57615C2.24253 2.37189 1.80003 3.45114 1.80003 4.57648C1.80003 6.60872 1.3698 7.87073 0.973302 8.6051C0.774226 8.97382 0.580378 9.2157 0.445722 9.3593C0.378237 9.43127 0.325207 9.47898 0.293278 9.50586C0.277305 9.51931 0.266593 9.52756 0.261973 9.53104L0.260258 9.53231C0.0451691 9.68158 -0.0500137 9.95462 0.0257913 10.2076C0.10241 10.4632 0.335644 10.6381 0.600042 10.6381H11.4C11.6644 10.6381 11.8976 10.4632 11.9742 10.2076C12.05 9.95462 11.9548 9.68158 11.7397 9.53231L11.738 9.53104C11.7334 9.52756 11.7227 9.51931 11.7067 9.50586C11.6748 9.47898 11.6218 9.43127 11.5543 9.3593C11.4196 9.2157 11.2258 8.97382 11.0267 8.6051C10.6302 7.87073 10.2 6.60872 10.2 4.57648C10.2 3.45114 9.75747 2.37189 8.96983 1.57615C8.18218 0.780414 7.1139 0.333374 6 0.333374ZM9.97323 9.18562C10.0189 9.27019 10.0647 9.35017 10.1104 9.42575H1.88963C1.93528 9.35017 1.98111 9.27019 2.02677 9.18562C2.53027 8.25306 3.00002 6.78735 3.00002 4.57648C3.00002 3.77267 3.31609 3.00177 3.8787 2.43339C4.4413 1.86501 5.20436 1.54569 6 1.54569C6.79564 1.54569 7.5587 1.86501 8.1213 2.43339C8.68391 3.00177 8.99998 3.77267 8.99998 4.57648C8.99998 6.78735 9.46973 8.25306 9.97323 9.18562ZM5.48102 12.1524C5.31474 11.8628 4.94759 11.7642 4.66096 11.9322C4.37433 12.1002 4.27675 12.4711 4.44302 12.7607C4.60125 13.0363 4.82836 13.265 5.10161 13.424C5.37487 13.583 5.68467 13.6667 6.00001 13.6667C6.31535 13.6667 6.62515 13.583 6.89841 13.424C7.17166 13.265 7.39877 13.0363 7.557 12.7607C7.72327 12.4711 7.6257 12.1002 7.33906 11.9322C7.05243 11.7642 6.68528 11.8628 6.51901 12.1524C6.46626 12.2442 6.39056 12.3205 6.29948 12.3735C6.20839 12.4265 6.10513 12.4544 6.00001 12.4544C5.8949 12.4544 5.79163 12.4265 5.70055 12.3735C5.60946 12.3205 5.53376 12.2442 5.48102 12.1524Z" fill="#474267"/>
</svg>
