<?xml version="1.0" encoding="utf-8"?>
<!-- Svg Vector Icons : http://www.onlinewebfonts.com/icon -->
<!DOCTYPE svg PUBLIC "-//W3C//DTD SVG 1.1//EN" "http://www.w3.org/Graphics/SVG/1.1/DTD/svg11.dtd">
<svg version="1.1" xmlns="http://www.w3.org/2000/svg" fill="#fff" xmlns:xlink="http://www.w3.org/1999/xlink" x="0px" y="0px" viewBox="0 0 1000 1000" enable-background="new 0 0 1000 1000" xml:space="preserve">
<metadata> Svg Vector Icons : http://www.onlinewebfonts.com/icon </metadata>
<g><path d="M475.2,664.7c4.6,4.9,11,7.7,17.8,7.8c0.1,0,0.2,0,0.4,0c6.6,0,12.9-2.6,17.6-7.3l228.7-228.7c9.7-9.7,9.7-25.5,0-35.2c-9.7-9.7-25.5-9.7-35.2,0L493.9,611.9l-197.8-210c-9.4-10-25.2-10.5-35.2-1c-10,9.4-10.5,25.2-1.1,35.2L475.2,664.7z M500,990c270.2,0,490-219.8,490-490c0-270.2-219.8-490-490-490C229.8,10,10,229.8,10,500C10,770.2,229.8,990,500,990z M500,59.8c242.7,0,440.2,197.5,440.2,440.2c0,242.7-197.5,440.2-440.2,440.2C257.3,940.2,59.8,742.7,59.8,500C59.8,257.3,257.3,59.8,500,59.8z"/></g>
</svg>