<?xml version="1.0" encoding="utf-8"?>
<!-- Svg Vector Icons : http://www.onlinewebfonts.com/icon -->
<!DOCTYPE svg PUBLIC "-//W3C//DTD SVG 1.1//EN" "http://www.w3.org/Graphics/SVG/1.1/DTD/svg11.dtd">
<svg version="1.1" xmlns="http://www.w3.org/2000/svg" fill="#fff" xmlns:xlink="http://www.w3.org/1999/xlink" x="0px" y="0px" viewBox="0 0 1000 1000" enable-background="new 0 0 1000 1000" xml:space="preserve">
<metadata> Svg Vector Icons : http://www.onlinewebfonts.com/icon </metadata>
<g><path d="M872.4,127.6h-196V88.4c0-43.3-35.1-78.4-78.4-78.4H402c-43.3,0-78.4,35.1-78.4,78.4v39.2h-196v39.2H168l39.2,744.8c0,43.3,35.1,78.4,78.4,78.4h431.2c43.3,0,78.4-35.1,78.4-78.4l38.6-744.8h38.6L872.4,127.6L872.4,127.6z M362.8,88.3c0-21.6,17.6-39.2,39.2-39.2h196c21.6,0,39.2,17.6,39.2,39.2v39.2H362.7L362.8,88.3L362.8,88.3z M756.1,909.5l-0.1,1v1c0,21.6-17.6,39.2-39.2,39.2H285.6c-21.6,0-39.2-17.6-39.2-39.2v-1l0-1l-39.2-742.8h587.3L756.1,909.5L756.1,909.5z"/><path d="M480.4,245.1h39.2v627.2h-39.2V245.1L480.4,245.1z"/><path d="M402.8,871.1l-40.1-626l-39.1,2.5l40.1,626L402.8,871.1z"/><path d="M676.6,246.4l-39.1-2.5L598,871.1l39.1,2.5L676.6,246.4z"/></g>
</svg>