<svg width="16" height="17" viewBox="0 0 16 17" fill="none" xmlns="http://www.w3.org/2000/svg">
<mask id="path-2-inside-1" fill="white">
<path fill-rule="evenodd" clip-rule="evenodd" d="M7.81533 1C4.94491 1 2.47681 2.72733 1.39589 5.20129C1.28533 5.45433 0.990573 5.56984 0.737529 5.45928C0.484485 5.34872 0.368979 5.05396 0.479538 4.80091C1.71385 1.97586 4.53329 0 7.81533 0C11.0974 0 13.9168 1.97586 15.1511 4.80091C15.1617 4.8251 15.1702 4.84968 15.1767 4.87443C15.6308 5.10771 15.9414 5.58076 15.9414 6.12637C15.9414 6.90321 15.3117 7.53296 14.5348 7.53296C13.758 7.53296 13.1282 6.90321 13.1282 6.12637C13.1282 5.52092 13.5108 5.00481 14.0473 4.80655C12.8857 2.54552 10.5305 1 7.81533 1ZM2.69773 12.7806C2.77201 12.6093 2.81319 12.4203 2.81319 12.2216C2.81319 11.4448 2.18343 10.815 1.40659 10.815C0.629753 10.815 0 11.4448 0 12.2216C0 12.9985 0.629753 13.6282 1.40659 13.6282C1.61837 13.6282 1.81922 13.5814 1.99936 13.4976C3.45763 15.0402 5.52388 16.0037 7.81533 16.0037C10.6093 16.0037 13.0685 14.5713 14.4989 12.4032C14.651 12.1727 14.5874 11.8626 14.3569 11.7105C14.1265 11.5584 13.8163 11.622 13.6642 11.8525C12.411 13.752 10.2592 15.0037 7.81533 15.0037C5.79601 15.0037 3.97611 14.1491 2.69773 12.7806Z"/>
</mask>
<path d="M1.39589 5.20129L2.31224 5.60166L2.31224 5.60166L1.39589 5.20129ZM0.737529 5.45928L0.337156 6.37563L0.337158 6.37563L0.737529 5.45928ZM0.479538 4.80091L1.39589 5.20129L1.39589 5.20129L0.479538 4.80091ZM15.1511 4.80091L14.2348 5.20129L14.2348 5.20129L15.1511 4.80091ZM15.1767 4.87443L14.2096 5.12892L14.3231 5.56016L14.7198 5.76392L15.1767 4.87443ZM14.0473 4.80655L14.3939 5.74457L15.4526 5.3534L14.9368 4.34956L14.0473 4.80655ZM2.69773 12.7806L1.78024 12.3829L1.51952 12.9843L1.96697 13.4633L2.69773 12.7806ZM1.99936 13.4976L2.72605 12.8106L2.23092 12.2869L1.57745 12.591L1.99936 13.4976ZM14.4989 12.4032L13.6642 11.8525L13.6642 11.8525L14.4989 12.4032ZM14.3569 11.7105L13.8062 12.5452L13.8062 12.5452L14.3569 11.7105ZM13.6642 11.8525L14.4989 12.4032L14.4989 12.4032L13.6642 11.8525ZM2.31224 5.60166C3.23971 3.47892 5.35638 2 7.81533 2V0C4.53343 0 1.71391 1.97573 0.479538 4.80091L2.31224 5.60166ZM0.337158 6.37563C1.09629 6.70731 1.98057 6.36079 2.31224 5.60166L0.479538 4.80091C0.590098 4.54787 0.884856 4.43236 1.1379 4.54292L0.337158 6.37563ZM-0.436814 4.40054C-0.768494 5.15967 -0.421973 6.04395 0.337156 6.37563L1.1379 4.54292C1.39094 4.65348 1.50645 4.94824 1.39589 5.20129L-0.436814 4.40054ZM7.81533 -1C4.12155 -1 0.950847 1.22452 -0.436815 4.40054L1.39589 5.20129C2.47686 2.72721 4.94503 1 7.81533 1V-1ZM16.0675 4.40054C14.6798 1.22452 11.5091 -1 7.81533 -1V1C10.6856 1 13.1538 2.72721 14.2348 5.20129L16.0675 4.40054ZM16.1438 4.61995C16.1242 4.54551 16.0988 4.47215 16.0675 4.40054L14.2348 5.20129C14.2246 5.17806 14.2162 5.15384 14.2096 5.12892L16.1438 4.61995ZM16.9414 6.12637C16.9414 5.19143 16.4081 4.38278 15.6337 3.98494L14.7198 5.76392C14.8535 5.83263 14.9414 5.97009 14.9414 6.12637H16.9414ZM14.5348 8.53296C15.864 8.53296 16.9414 7.4555 16.9414 6.12637H14.9414C14.9414 6.35093 14.7594 6.53296 14.5348 6.53296V8.53296ZM12.1282 6.12637C12.1282 7.45549 13.2057 8.53296 14.5348 8.53296V6.53296C14.3103 6.53296 14.1282 6.35093 14.1282 6.12637H12.1282ZM13.7008 3.86853C12.7842 4.20718 12.1282 5.0889 12.1282 6.12637H14.1282C14.1282 5.95293 14.2373 5.80243 14.3939 5.74457L13.7008 3.86853ZM7.81533 2C10.1413 2 12.1608 3.32295 13.1579 5.26354L14.9368 4.34956C13.6105 1.76809 10.9197 0 7.81533 0V2ZM1.81319 12.2216C1.81319 12.2809 1.80112 12.3347 1.78024 12.3829L3.61522 13.1784C3.7429 12.8839 3.81319 12.5597 3.81319 12.2216H1.81319ZM1.40659 11.815C1.63115 11.815 1.81319 11.9971 1.81319 12.2216H3.81319C3.81319 10.8925 2.73572 9.81504 1.40659 9.81504V11.815ZM1 12.2216C1 11.9971 1.18204 11.815 1.40659 11.815V9.81504C0.0774689 9.81504 -1 10.8925 -1 12.2216H1ZM1.40659 12.6282C1.18204 12.6282 1 12.4462 1 12.2216H-1C-1 13.5508 0.077468 14.6282 1.40659 14.6282V12.6282ZM1.57745 12.591C1.52673 12.6146 1.46963 12.6282 1.40659 12.6282V14.6282C1.76712 14.6282 2.11171 14.5483 2.42127 14.4042L1.57745 12.591ZM1.27266 14.1846C2.91187 15.9186 5.23755 17.0037 7.81533 17.0037V15.0037C5.81021 15.0037 4.00338 14.1618 2.72605 12.8106L1.27266 14.1846ZM7.81533 17.0037C10.9595 17.0037 13.726 15.3905 15.3336 12.9539L13.6642 11.8525C12.4109 13.7521 10.2591 15.0037 7.81533 15.0037V17.0037ZM15.3336 12.9539C15.7899 12.2624 15.5991 11.332 14.9077 10.8758L13.8062 12.5452C13.5757 12.3931 13.5122 12.083 13.6642 11.8525L15.3336 12.9539ZM14.9077 10.8758C14.2162 10.4196 13.2858 10.6103 12.8296 11.3018L14.4989 12.4032C14.3469 12.6337 14.0367 12.6973 13.8062 12.5452L14.9077 10.8758ZM12.8296 11.3018C11.7535 12.9327 9.9092 14.0037 7.81533 14.0037V16.0037C10.6092 16.0037 13.0684 14.5714 14.4989 12.4032L12.8296 11.3018ZM7.81533 14.0037C6.0843 14.0037 4.52558 13.2724 3.42849 12.098L1.96697 13.4633C3.42664 15.0258 5.50772 16.0037 7.81533 16.0037V14.0037Z" fill="#35603D" mask="url(#path-2-inside-1)"/>
<path d="M7.70298 12.9354C7.09631 12.9354 6.55031 12.8314 6.06498 12.6234C5.57964 12.4067 5.19831 12.1034 4.92098 11.7134C4.64364 11.3234 4.50498 10.8684 4.50498 10.3484H6.09098C6.12564 10.7384 6.27731 11.059 6.54598 11.3104C6.82331 11.5617 7.20898 11.6874 7.70298 11.6874C8.21431 11.6874 8.61298 11.566 8.89898 11.3234C9.18498 11.072 9.32798 10.7514 9.32798 10.3614C9.32798 10.058 9.23698 9.81103 9.05498 9.62036C8.88164 9.42969 8.66064 9.28236 8.39198 9.17836C8.13198 9.07436 7.76798 8.96169 7.29998 8.84036C6.71064 8.68436 6.22964 8.52836 5.85698 8.37236C5.49298 8.20769 5.18098 7.95636 4.92098 7.61836C4.66098 7.28036 4.53098 6.82969 4.53098 6.26636C4.53098 5.74636 4.66098 5.29136 4.92098 4.90136C5.18098 4.51136 5.54498 4.21236 6.01298 4.00436C6.48098 3.79636 7.02264 3.69236 7.63798 3.69236C8.51331 3.69236 9.22831 3.91336 9.78298 4.35536C10.3463 4.78869 10.6583 5.38669 10.719 6.14936H9.08098C9.05498 5.82003 8.89898 5.53836 8.61298 5.30436C8.32698 5.07036 7.94998 4.95336 7.48198 4.95336C7.05731 4.95336 6.71064 5.06169 6.44198 5.27836C6.17331 5.49503 6.03898 5.80703 6.03898 6.21436C6.03898 6.49169 6.12131 6.72136 6.28598 6.90336C6.45931 7.07669 6.67598 7.21536 6.93598 7.31936C7.19598 7.42336 7.55131 7.53603 8.00198 7.65736C8.59998 7.82203 9.08531 7.98669 9.45798 8.15136C9.83931 8.31603 10.16 8.57169 10.42 8.91836C10.6886 9.25636 10.823 9.71136 10.823 10.2834C10.823 10.7427 10.6973 11.176 10.446 11.5834C10.2033 11.9907 9.84364 12.32 9.36698 12.5714C8.89898 12.814 8.34431 12.9354 7.70298 12.9354Z" fill="#35603D"/>
</svg>
