<?xml version="1.0" standalone="no"?>
<!DOCTYPE svg PUBLIC "-//W3C//DTD SVG 20010904//EN"
 "http://www.w3.org/TR/2001/REC-SVG-20010904/DTD/svg10.dtd">
<svg version="1.0" xmlns="http://www.w3.org/2000/svg"
 width="640.000000pt" height="641.000000pt" viewBox="0 0 640.000000 641.000000"
 preserveAspectRatio="xMidYMid meet">

<g transform="translate(0.000000,641.000000) scale(0.100000,-0.100000)"
fill="#000000" stroke="none">
<path d="M2767 6389 c-435 -57 -789 -169 -1138 -359 -301 -164 -488 -302 -735
-542 -258 -252 -456 -526 -627 -867 -70 -138 -72 -145 -72 -216 0 -67 3 -77
31 -111 42 -53 94 -77 163 -77 104 0 133 27 230 220 159 313 379 611 602 814
359 327 781 559 1214 668 284 71 328 76 695 76 366 0 425 -6 665 -66 618 -154
1102 -462 1524 -967 87 -104 301 -431 301 -460 0 -5 -36 -32 -80 -61 -145 -94
-249 -246 -269 -393 -42 -308 169 -598 465 -639 177 -25 337 22 460 134 184
168 239 450 129 666 -34 68 -113 161 -182 214 -53 41 -65 58 -132 188 -193
376 -373 622 -652 894 -221 215 -413 358 -683 508 -334 186 -713 311 -1101
366 -212 29 -625 35 -808 10z m3129 -2291 c60 -41 86 -84 86 -143 0 -53 -17
-82 -67 -121 -105 -80 -245 -9 -245 123 0 71 22 107 85 144 64 37 82 36 141
-3z"/>
<path d="M2830 5359 c-625 -64 -1158 -385 -1505 -908 -163 -246 -282 -558
-331 -866 -22 -140 -30 -463 -15 -611 77 -751 494 -1379 1131 -1700 292 -148
585 -214 945 -214 256 0 488 35 695 106 118 40 348 156 463 234 402 271 710
715 831 1199 53 206 81 476 74 706 l-3 110 -1052 3 -1053 2 0 -270 0 -270 680
0 c651 0 680 -1 680 -18 0 -51 -36 -219 -66 -311 -105 -317 -331 -576 -629
-721 -118 -57 -195 -84 -325 -110 -277 -56 -581 -26 -825 81 -440 192 -763
637 -840 1153 -19 133 -19 391 0 521 86 569 447 1022 948 1190 136 45 264 65
426 65 398 0 695 -123 963 -398 51 -54 105 -113 120 -132 l26 -35 303 154
c167 85 306 156 308 157 15 12 -140 206 -263 330 -295 295 -662 474 -1107 539
-129 19 -452 27 -579 14z"/>
<path d="M436 2064 c-191 -46 -353 -205 -402 -395 -20 -78 -22 -214 -5 -289
40 -164 174 -313 346 -383 75 -30 87 -32 195 -31 87 1 131 7 179 22 l64 21
116 -112 c223 -215 406 -349 691 -502 364 -197 711 -308 1125 -361 173 -23
595 -26 755 -6 233 29 575 112 775 188 276 105 666 333 892 522 124 103 460
443 483 488 7 16 26 43 41 59 27 31 116 161 139 204 21 41 8 133 -25 181 -16
23 -39 46 -51 50 -12 5 -25 14 -29 19 -3 6 -38 11 -78 11 -70 0 -74 -1 -129
-45 -31 -24 -64 -59 -73 -78 -38 -81 -288 -365 -436 -495 -109 -96 -236 -198
-283 -227 -18 -11 -64 -41 -102 -67 -130 -86 -452 -244 -541 -264 -15 -3 -55
-16 -88 -29 -88 -34 -289 -81 -455 -106 -193 -30 -590 -32 -775 -5 -388 56
-706 168 -1062 374 -179 103 -290 186 -481 360 -111 101 -127 127 -112 180 18
64 23 194 11 272 -18 115 -66 208 -154 294 -39 39 -95 84 -124 99 -114 61
-280 82 -407 51z m213 -402 c93 -47 107 -212 23 -269 -52 -35 -112 -39 -167
-13 -63 31 -85 65 -85 135 0 59 15 98 48 128 42 38 127 47 181 19z"/>
</g>
</svg>
