<?xml version="1.0" standalone="no"?>
<!DOCTYPE svg PUBLIC "-//W3C//DTD SVG 20010904//EN"
 "http://www.w3.org/TR/2001/REC-SVG-20010904/DTD/svg10.dtd">
<svg version="1.0" xmlns="http://www.w3.org/2000/svg"
 width="544.000000pt" height="544.000000pt" viewBox="0 0 544.000000 544.000000"
 preserveAspectRatio="xMidYMid meet">
<metadata>
Created by potrace 1.14, written by Peter Selinger 2001-2017
</metadata>
<g transform="translate(0.000000,544.000000) scale(0.100000,-0.100000)"
fill="#000000" stroke="none">
<path d="M2469 5436 c-2 -2 -33 -6 -69 -10 -92 -9 -146 -17 -240 -36 -30 -6
-67 -14 -83 -16 -15 -3 -64 -16 -110 -30 -45 -14 -89 -27 -97 -29 -55 -15
-116 -38 -225 -84 -155 -67 -429 -225 -512 -296 -6 -5 -26 -21 -44 -35 -94
-71 -252 -218 -336 -313 -27 -29 -103 -124 -177 -217 -37 -48 -158 -252 -210
-355 -52 -103 -60 -128 -60 -177 -1 -42 4 -64 20 -84 34 -46 70 -67 120 -70
93 -5 129 24 191 156 112 235 299 496 463 646 14 13 47 43 73 68 70 65 217
173 325 240 83 51 288 155 316 160 6 2 29 10 50 20 22 9 51 19 65 23 14 3 31
8 36 12 6 3 15 6 20 8 6 1 42 11 80 22 62 17 173 41 260 56 91 15 168 20 330
20 188 0 264 -6 400 -30 167 -29 391 -100 545 -171 52 -25 96 -45 97 -45 4 -1
168 -98 178 -106 6 -4 37 -26 70 -48 33 -22 62 -42 65 -45 3 -3 39 -33 80 -67
112 -91 227 -209 345 -354 56 -69 215 -320 215 -340 0 -4 -21 -18 -47 -31 -95
-47 -208 -188 -228 -283 -35 -169 10 -324 124 -435 94 -92 194 -131 325 -126
100 4 116 8 191 46 234 118 316 420 175 640 -32 50 -135 150 -154 150 -6 0
-42 63 -79 140 -158 321 -395 621 -668 844 -117 96 -100 83 -193 145 -323 218
-673 355 -1051 412 -38 5 -83 12 -100 15 -34 6 -471 15 -476 10z m2403 -1846
c84 -53 92 -155 16 -210 -47 -34 -88 -38 -137 -14 -42 21 -63 54 -66 107 -4
56 22 99 78 126 53 26 53 26 109 -9z"/>
<path d="M2488 4255 c-2 -1 -30 -5 -63 -8 -87 -8 -154 -23 -253 -56 -371 -124
-577 -419 -559 -800 12 -254 95 -409 297 -557 69 -51 227 -122 330 -149 8 -2
62 -18 120 -35 58 -17 130 -38 160 -46 133 -36 170 -47 255 -76 240 -82 355
-200 368 -377 16 -211 -123 -383 -352 -434 -65 -15 -252 -16 -320 -2 -136 28
-250 113 -311 234 -22 44 -52 133 -49 148 6 32 0 33 -255 33 l-254 0 4 -69
c16 -346 301 -641 702 -727 111 -23 161 -28 302 -29 167 0 239 8 358 40 195
52 370 167 489 320 64 83 133 232 149 320 12 66 21 161 18 185 -2 14 -5 52 -8
85 -10 112 -36 196 -88 283 -44 71 -149 179 -224 229 -60 40 -242 123 -269
123 -7 0 -17 5 -20 10 -3 6 -16 10 -29 10 -12 0 -27 5 -34 12 -7 7 -12 9 -12
5 0 -3 -19 1 -42 9 -24 9 -119 37 -213 64 -229 65 -362 116 -430 162 -51 35
-109 99 -132 147 -22 46 -26 70 -26 136 0 95 6 131 34 191 62 130 219 215 406
217 189 2 313 -42 420 -150 44 -45 103 -153 103 -190 0 -41 5 -42 273 -41
l258 1 -6 41 c-7 59 -14 96 -26 136 -6 19 -12 40 -13 45 -2 6 -4 13 -5 18 -3
20 -68 137 -101 182 -84 114 -249 237 -385 286 -11 4 -33 12 -50 18 -43 16
-163 43 -210 48 -51 5 -302 12 -307 8z"/>
<path d="M496 1963 c-199 -52 -333 -226 -333 -433 0 -49 6 -98 14 -117 7 -18
11 -33 7 -33 -3 0 9 -27 28 -60 18 -33 36 -60 40 -60 5 0 8 -5 8 -10 0 -13 58
-65 114 -102 51 -35 156 -69 211 -70 42 -1 138 13 173 26 l43 15 68 -67 c231
-227 448 -372 796 -533 51 -23 209 -79 285 -100 25 -7 47 -13 50 -14 30 -9
192 -44 225 -49 17 -2 48 -7 70 -10 203 -30 423 -34 650 -12 187 19 513 100
652 162 17 8 33 14 37 14 24 0 359 174 393 205 6 5 34 24 62 40 28 17 51 33
51 38 0 4 4 7 10 7 5 0 18 6 27 14 10 8 53 43 96 77 87 69 256 232 332 322 28
33 56 65 63 72 6 8 12 18 12 24 0 5 6 14 13 18 18 11 127 170 128 189 5 58 4
82 -7 104 -16 33 -49 70 -62 70 -6 0 -12 5 -14 10 -5 15 -92 22 -125 9 -28
-10 -103 -76 -103 -91 0 -24 -172 -230 -285 -341 -83 -82 -286 -247 -303 -247
-6 0 -12 -3 -14 -8 -3 -8 -73 -53 -143 -93 -118 -67 -350 -169 -363 -160 -1 1
-15 -5 -30 -12 -23 -12 -105 -37 -170 -52 -79 -19 -102 -24 -137 -29 -22 -4
-53 -8 -70 -11 -64 -11 -108 -15 -212 -21 -59 -4 -112 -6 -118 -6 -5 0 -59 3
-120 6 -60 3 -126 7 -145 10 -19 3 -53 8 -75 11 -137 18 -326 69 -505 136
-103 39 -419 214 -450 249 -3 3 -18 14 -35 24 -16 11 -55 40 -85 65 -72 61
-67 56 -150 135 -76 74 -74 70 -53 146 4 14 7 66 7 115 0 126 -34 212 -118
303 -106 115 -285 166 -440 125z m162 -312 c40 -4 90 -94 79 -141 -15 -61 -22
-72 -60 -92 -56 -28 -119 -19 -158 22 -16 16 -30 35 -30 42 -8 65 -5 86 12
114 31 50 72 65 157 55z"/>
</g>
</svg>
