<svg width="88" height="42" viewBox="0 0 88 42" fill="none" xmlns="http://www.w3.org/2000/svg">
<path d="M6.20002 29.14C5.22669 29.14 4.34669 28.9733 3.56002 28.64C2.78669 28.3067 2.17335 27.8267 1.72002 27.2C1.26669 26.5733 1.03335 25.8333 1.02002 24.98H4.02002C4.06002 25.5533 4.26002 26.0067 4.62002 26.34C4.99335 26.6733 5.50002 26.84 6.14002 26.84C6.79335 26.84 7.30669 26.6867 7.68002 26.38C8.05335 26.06 8.24002 25.6467 8.24002 25.14C8.24002 24.7267 8.11335 24.3867 7.86002 24.12C7.60669 23.8533 7.28669 23.6467 6.90002 23.5C6.52669 23.34 6.00669 23.1667 5.34002 22.98C4.43335 22.7133 3.69335 22.4533 3.12002 22.2C2.56002 21.9333 2.07335 21.54 1.66002 21.02C1.26002 20.4867 1.06002 19.78 1.06002 18.9C1.06002 18.0733 1.26669 17.3533 1.68002 16.74C2.09335 16.1267 2.67335 15.66 3.42002 15.34C4.16669 15.0067 5.02002 14.84 5.98002 14.84C7.42002 14.84 8.58669 15.1933 9.48002 15.9C10.3867 16.5933 10.8867 17.5667 10.98 18.82H7.90002C7.87335 18.34 7.66669 17.9467 7.28002 17.64C6.90669 17.32 6.40669 17.16 5.78002 17.16C5.23335 17.16 4.79335 17.3 4.46002 17.58C4.14002 17.86 3.98002 18.2667 3.98002 18.8C3.98002 19.1733 4.10002 19.4867 4.34002 19.74C4.59335 19.98 4.90002 20.18 5.26002 20.34C5.63335 20.4867 6.15335 20.66 6.82002 20.86C7.72669 21.1267 8.46669 21.3933 9.04002 21.66C9.61335 21.9267 10.1067 22.3267 10.52 22.86C10.9333 23.3933 11.14 24.0933 11.14 24.96C11.14 25.7067 10.9467 26.4 10.56 27.04C10.1733 27.68 9.60669 28.1933 8.86002 28.58C8.11335 28.9533 7.22669 29.14 6.20002 29.14ZM18.4875 29.18C17.4208 29.18 16.4608 28.9467 15.6075 28.48C14.7542 28 14.0808 27.3267 13.5875 26.46C13.1075 25.5933 12.8675 24.5933 12.8675 23.46C12.8675 22.3267 13.1142 21.3267 13.6075 20.46C14.1142 19.5933 14.8008 18.9267 15.6675 18.46C16.5342 17.98 17.5008 17.74 18.5675 17.74C19.6342 17.74 20.6008 17.98 21.4675 18.46C22.3342 18.9267 23.0142 19.5933 23.5075 20.46C24.0142 21.3267 24.2675 22.3267 24.2675 23.46C24.2675 24.5933 24.0075 25.5933 23.4875 26.46C22.9808 27.3267 22.2875 28 21.4075 28.48C20.5408 28.9467 19.5675 29.18 18.4875 29.18ZM18.4875 26.74C18.9942 26.74 19.4675 26.62 19.9075 26.38C20.3608 26.1267 20.7208 25.7533 20.9875 25.26C21.2542 24.7667 21.3875 24.1667 21.3875 23.46C21.3875 22.4067 21.1075 21.6 20.5475 21.04C20.0008 20.4667 19.3275 20.18 18.5275 20.18C17.7275 20.18 17.0542 20.4667 16.5075 21.04C15.9742 21.6 15.7075 22.4067 15.7075 23.46C15.7075 24.5133 15.9675 25.3267 16.4875 25.9C17.0208 26.46 17.6875 26.74 18.4875 26.74ZM27.7414 16.6C27.2481 16.6 26.8347 16.4467 26.5014 16.14C26.1814 15.82 26.0214 15.4267 26.0214 14.96C26.0214 14.4933 26.1814 14.1067 26.5014 13.8C26.8347 13.48 27.2481 13.32 27.7414 13.32C28.2347 13.32 28.6414 13.48 28.9614 13.8C29.2947 14.1067 29.4614 14.4933 29.4614 14.96C29.4614 15.4267 29.2947 15.82 28.9614 16.14C28.6414 16.4467 28.2347 16.6 27.7414 16.6ZM29.1214 17.92V29H26.3214V17.92H29.1214ZM34.6878 14.2V29H31.8878V14.2H34.6878ZM52.6742 15.04V29H49.8742V19.92L46.1342 29H44.0142L40.2542 19.92V29H37.4542V15.04H40.6342L45.0742 25.42L49.5142 15.04H52.6742ZM54.7225 23.42C54.7225 22.3 54.9425 21.3067 55.3825 20.44C55.8358 19.5733 56.4425 18.9067 57.2025 18.44C57.9758 17.9733 58.8358 17.74 59.7825 17.74C60.6092 17.74 61.3292 17.9067 61.9425 18.24C62.5692 18.5733 63.0692 18.9933 63.4425 19.5V17.92H66.2625V29H63.4425V27.38C63.0825 27.9 62.5825 28.3333 61.9425 28.68C61.3158 29.0133 60.5892 29.18 59.7625 29.18C58.8292 29.18 57.9758 28.94 57.2025 28.46C56.4425 27.98 55.8358 27.3067 55.3825 26.44C54.9425 25.56 54.7225 24.5533 54.7225 23.42ZM63.4425 23.46C63.4425 22.78 63.3092 22.2 63.0425 21.72C62.7758 21.2267 62.4158 20.8533 61.9625 20.6C61.5092 20.3333 61.0225 20.2 60.5025 20.2C59.9825 20.2 59.5025 20.3267 59.0625 20.58C58.6225 20.8333 58.2625 21.2067 57.9825 21.7C57.7158 22.18 57.5825 22.7533 57.5825 23.42C57.5825 24.0867 57.7158 24.6733 57.9825 25.18C58.2625 25.6733 58.6225 26.0533 59.0625 26.32C59.5158 26.5867 59.9958 26.72 60.5025 26.72C61.0225 26.72 61.5092 26.5933 61.9625 26.34C62.4158 26.0733 62.7758 25.7 63.0425 25.22C63.3092 24.7267 63.4425 24.14 63.4425 23.46ZM72.2572 20.22V25.58C72.2572 25.9533 72.3439 26.2267 72.5172 26.4C72.7039 26.56 73.0105 26.64 73.4372 26.64H74.7372V29H72.9772C70.6172 29 69.4372 27.8533 69.4372 25.56V20.22H68.1172V17.92H69.4372V15.18H72.2572V17.92H74.7372V20.22H72.2572ZM87.0511 23.22C87.0511 23.62 87.0244 23.98 86.9711 24.3H78.8711C78.9378 25.1 79.2178 25.7267 79.7111 26.18C80.2044 26.6333 80.8111 26.86 81.5311 26.86C82.5711 26.86 83.3111 26.4133 83.7511 25.52H86.7711C86.4511 26.5867 85.8378 27.4667 84.9311 28.16C84.0244 28.84 82.9111 29.18 81.5911 29.18C80.5244 29.18 79.5644 28.9467 78.7111 28.48C77.8711 28 77.2111 27.3267 76.7311 26.46C76.2644 25.5933 76.0311 24.5933 76.0311 23.46C76.0311 22.3133 76.2644 21.3067 76.7311 20.44C77.1978 19.5733 77.8511 18.9067 78.6911 18.44C79.5311 17.9733 80.4978 17.74 81.5911 17.74C82.6444 17.74 83.5844 17.9667 84.4111 18.42C85.2511 18.8733 85.8978 19.52 86.3511 20.36C86.8178 21.1867 87.0511 22.14 87.0511 23.22ZM84.1511 22.42C84.1378 21.7 83.8778 21.1267 83.3711 20.7C82.8644 20.26 82.2444 20.04 81.5111 20.04C80.8178 20.04 80.2311 20.2533 79.7511 20.68C79.2844 21.0933 78.9978 21.6733 78.8911 22.42H84.1511Z" fill="#35603D"/>
<mask id="mask0" mask-type="alpha" maskUnits="userSpaceOnUse" x="25" y="0" width="39" height="42">
<path fill-rule="evenodd" clip-rule="evenodd" d="M27.0026 10.0495C25.8602 10.2801 25 11.2896 25 12.5C25 13.8807 26.1193 15 27.5 15C28.8807 15 30 13.8807 30 12.5C30 11.3515 29.2255 10.3839 28.1704 10.0909C31.6756 4.90697 37.6082 1.5 44.3358 1.5C52.3313 1.5 59.2039 6.31211 62.2135 13.2002C62.324 13.4532 62.6188 13.5687 62.8718 13.4582C63.1249 13.3476 63.2404 13.0529 63.1298 12.7998C59.9669 5.56065 52.7429 0.5 44.3358 0.5C37.0402 0.5 30.6356 4.31099 27.0026 10.0495ZM27.3545 31.5827C27.585 31.4306 27.8951 31.4941 28.0472 31.7246C31.5361 37.0126 37.5288 40.5 44.3358 40.5C49.7965 40.5 54.7331 38.2557 58.2734 34.638C58.0986 34.2967 58 33.9098 58 33.5C58 32.1193 59.1193 31 60.5 31C61.8807 31 63 32.1193 63 33.5C63 34.8807 61.8807 36 60.5 36C59.8928 36 59.3363 35.7836 58.9031 35.4236C55.1883 39.1752 50.0336 41.5 44.3358 41.5C37.1787 41.5 30.8786 37.8319 27.2125 32.2754C27.0604 32.0449 27.124 31.7347 27.3545 31.5827Z" fill="white"/>
</mask>
<g mask="url(#mask0)">
<path d="M27.0026 10.0495L27.2005 11.0297L27.6191 10.9452L27.8475 10.5844L27.0026 10.0495ZM28.1704 10.0909L27.342 9.53076L26.5632 10.6825L27.9028 11.0544L28.1704 10.0909ZM62.2135 13.2002L63.1298 12.7998L62.2135 13.2002ZM62.8718 13.4582L63.2722 14.3745L62.8718 13.4582ZM63.1298 12.7998L62.2135 13.2002L63.1298 12.7998ZM28.0472 31.7246L27.2125 32.2754L28.0472 31.7246ZM27.3545 31.5827L27.9052 32.4173L27.3545 31.5827ZM58.2734 34.638L58.9881 35.3374L59.4917 34.8229L59.1635 34.1822L58.2734 34.638ZM58.9031 35.4236L59.5423 34.6546L58.8374 34.0688L58.1926 34.72L58.9031 35.4236ZM27.2125 32.2754L28.0472 31.7246L27.2125 32.2754ZM26 12.5C26 11.7749 26.5155 11.168 27.2005 11.0297L26.8047 9.06925C25.2049 9.39221 24 10.8043 24 12.5H26ZM27.5 14C26.6716 14 26 13.3284 26 12.5H24C24 14.433 25.567 16 27.5 16V14ZM29 12.5C29 13.3284 28.3284 14 27.5 14V16C29.433 16 31 14.433 31 12.5H29ZM27.9028 11.0544C28.5364 11.2304 29 11.8123 29 12.5H31C31 10.8907 29.9147 9.5374 28.4379 9.12735L27.9028 11.0544ZM28.9988 10.651C32.3259 5.73045 37.9542 2.5 44.3358 2.5V0.5C37.2623 0.5 31.0252 4.08348 27.342 9.53076L28.9988 10.651ZM44.3358 2.5C51.9197 2.5 58.441 7.06362 61.2971 13.6006L63.1298 12.7998C59.9669 5.5606 52.7429 0.5 44.3358 0.5V2.5ZM61.2971 13.6006C61.6288 14.3597 62.5131 14.7062 63.2722 14.3745L62.4715 12.5418C62.7245 12.4313 63.0193 12.5468 63.1298 12.7998L61.2971 13.6006ZM63.2722 14.3745C64.0313 14.0429 64.3779 13.1586 64.0462 12.3994L62.2135 13.2002C62.1029 12.9471 62.2184 12.6524 62.4715 12.5418L63.2722 14.3745ZM64.0462 12.3994C60.7299 4.80924 53.1546 -0.5 44.3358 -0.5V1.5C52.3312 1.5 59.2039 6.31206 62.2135 13.2002L64.0462 12.3994ZM44.3358 -0.5C36.6832 -0.5 29.9662 3.49875 26.1577 9.51458L27.8475 10.5844C31.3049 5.12322 37.3972 1.5 44.3358 1.5V-0.5ZM28.8819 31.1739C28.4257 30.4824 27.4953 30.2917 26.8038 30.748L27.9052 32.4173C27.6747 32.5694 27.3646 32.5059 27.2125 32.2754L28.8819 31.1739ZM44.3358 39.5C37.8789 39.5 32.1936 36.1933 28.8819 31.1739L27.2125 32.2754C30.8786 37.8319 37.1788 41.5 44.3358 41.5V39.5ZM57.5587 33.9386C54.1988 37.372 49.5167 39.5 44.3358 39.5V41.5C50.0763 41.5 55.2674 39.1395 58.9881 35.3374L57.5587 33.9386ZM57 33.5C57 34.072 57.138 34.6147 57.3834 35.0938L59.1635 34.1822C59.0593 33.9786 59 33.7477 59 33.5H57ZM60.5 30C58.567 30 57 31.567 57 33.5H59C59 32.6716 59.6716 32 60.5 32V30ZM64 33.5C64 31.567 62.433 30 60.5 30V32C61.3284 32 62 32.6716 62 33.5H64ZM60.5 37C62.433 37 64 35.433 64 33.5H62C62 34.3284 61.3284 35 60.5 35V37ZM58.264 36.1927C58.87 36.6963 59.6509 37 60.5 37V35C60.1348 35 59.8025 34.8708 59.5423 34.6546L58.264 36.1927ZM44.3358 42.5C50.3113 42.5 55.7188 40.0607 59.6137 36.1273L58.1926 34.72C54.6578 38.2897 49.7559 40.5 44.3358 40.5V42.5ZM26.3778 32.8261C30.2211 38.6511 36.8286 42.5 44.3358 42.5V40.5C37.5288 40.5 31.5361 37.0126 28.0472 31.7246L26.3778 32.8261ZM26.8038 30.748C26.1123 31.2042 25.9216 32.1346 26.3778 32.8261L28.0472 31.7246C28.1993 31.9551 28.1357 32.2653 27.9052 32.4173L26.8038 30.748Z" fill="#35603D"/>
</g>
</svg>
